<svg width="349" height="60" viewBox="0 0 349 60" fill="none" xmlns="http://www.w3.org/2000/svg">
<path d="M101.528 50.7923C98.5017 50.7923 95.7759 50.0843 93.3423 48.6595C90.9086 47.2347 88.9528 45.1815 87.4837 42.5C86.0146 39.8186 85.2801 36.6415 85.2801 32.9865C85.2801 29.3316 86.0589 26.2164 87.6164 23.65C89.174 21.0747 91.236 19.0923 93.8113 17.6941C96.3866 16.2958 99.1831 15.5967 102.201 15.5967C105.449 15.5967 107.856 16.1454 109.413 17.2516C110.971 18.3578 111.75 19.9065 111.75 21.8889C111.75 23.5615 111.343 24.8005 110.529 25.6146C110.121 26.0217 109.626 26.3138 109.042 26.4908C108.458 26.6678 107.785 26.7917 107.042 26.8625C106.298 26.9333 105.405 27.0129 104.369 27.1014C103.289 27.1899 102.307 27.4643 101.422 27.9156C100.546 28.3669 99.838 29.0218 99.3247 29.8802C98.8026 30.7387 98.5459 31.8183 98.5459 33.1281C98.5459 34.3494 98.8026 35.3848 99.3247 36.2432C99.8469 37.1017 100.546 37.7566 101.422 38.2079C102.298 38.6592 103.263 38.907 104.298 38.9513C105.334 39.0398 106.236 39.1017 107.006 39.1194C107.776 39.146 108.44 39.2345 109.006 39.3938C109.573 39.5531 110.06 39.854 110.458 40.3053C110.909 40.7124 111.237 41.2522 111.44 41.9337C111.644 42.6151 111.741 43.3585 111.741 44.1638C111.741 45.2877 111.378 46.3674 110.661 47.3763C109.936 48.394 108.821 49.217 107.307 49.8454C105.794 50.4737 103.865 50.7923 101.519 50.7923H101.528Z" fill="#0013FF"/>
<path d="M131.113 50.8552C125.334 50.8552 121.175 49.333 118.626 46.2887C116.077 43.2444 114.803 38.8372 114.803 33.0582C114.803 30.4387 114.874 28.1201 115.007 26.0846C115.139 24.058 115.414 22.2969 115.821 20.8013C116.272 19.1287 116.998 17.8897 117.989 17.0755C118.98 16.2613 120.405 15.8542 122.255 15.8542C124.104 15.8542 125.37 16.3056 126.317 17.2083C127.264 18.1109 127.741 19.642 127.741 21.8102C127.741 23.527 127.733 25.297 127.706 27.12C127.679 28.9431 127.671 31.0582 127.671 33.4476C127.671 35.253 127.972 36.5362 128.582 37.3061C129.193 38.0761 130.06 38.4566 131.184 38.4566C132.219 38.4566 133.042 38.0761 133.653 37.3061C134.264 36.5362 134.591 35.253 134.635 33.4476C134.591 31.0582 134.547 28.9431 134.503 27.12C134.458 25.297 134.432 23.527 134.432 21.8102C134.432 19.642 134.91 18.1109 135.857 17.2083C136.804 16.3056 138.202 15.8542 140.052 15.8542C141.627 15.8542 142.875 16.2613 143.777 17.0755C144.68 17.8897 145.353 19.1287 145.804 20.8013C146.211 22.288 146.468 24.0492 146.583 26.0846C146.698 28.1112 146.777 30.4387 146.822 33.0582C146.777 38.8372 145.521 43.2444 143.069 46.2887C140.609 49.333 136.627 50.8552 131.122 50.8552H131.113Z" fill="#0013FF"/>
<path d="M166.521 50.7923C163.495 50.7923 160.769 50.0843 158.335 48.6595C155.902 47.2347 153.946 45.1815 152.477 42.5C151.008 39.8186 150.273 36.6415 150.273 32.9865C150.273 29.3316 151.052 26.2164 152.61 23.65C154.167 21.0747 156.229 19.0923 158.804 17.6941C161.38 16.2958 164.176 15.5967 167.194 15.5967C170.442 15.5967 172.849 16.1454 174.407 17.2516C175.964 18.3578 176.743 19.9065 176.743 21.8889C176.743 23.5615 176.336 24.8005 175.522 25.6146C175.115 26.0217 174.619 26.3138 174.035 26.4908C173.451 26.6678 172.778 26.7917 172.035 26.8625C171.292 26.9333 170.398 27.0129 169.362 27.1014C168.283 27.1899 167.3 27.4643 166.415 27.9156C165.539 28.3669 164.831 29.0218 164.318 29.8802C163.796 30.7387 163.539 31.8183 163.539 33.1281C163.539 34.3494 163.796 35.3848 164.318 36.2432C164.84 37.1017 165.539 37.7566 166.415 38.2079C167.291 38.6592 168.256 38.907 169.291 38.9513C170.327 39.0398 171.23 39.1017 171.999 39.1194C172.769 39.146 173.433 39.2345 174 39.3938C174.566 39.5531 175.053 39.854 175.451 40.3053C175.902 40.7124 176.23 41.2522 176.433 41.9337C176.637 42.6151 176.734 43.3585 176.734 44.1638C176.734 45.2877 176.371 46.3674 175.654 47.3763C174.929 48.394 173.814 49.217 172.3 49.8454C170.787 50.4737 168.858 50.7923 166.513 50.7923H166.521Z" fill="#0013FF"/>
<path d="M186.823 50.5189C185.469 50.5189 184.363 50.28 183.504 49.811C182.646 49.3331 181.973 48.6251 181.478 47.6782C181.115 46.864 180.832 45.7578 180.628 44.3595C180.424 42.9612 180.292 41.3152 180.221 39.4213C180.15 37.5274 180.124 35.4743 180.124 33.2619C180.124 31.0494 180.159 29.1201 180.221 27.2086C180.292 25.2882 180.416 23.589 180.593 22.1023C180.77 20.6155 181.07 19.465 181.469 18.6508C181.964 17.7039 182.646 16.9959 183.495 16.518C184.354 16.0402 185.46 15.8101 186.814 15.8101C189.389 15.8101 191.142 16.7835 192.097 18.7216C192.549 19.5358 192.867 20.6774 193.044 22.1377C193.221 23.6067 193.336 25.2882 193.381 27.182C193.425 29.0759 193.451 31.1113 193.451 33.2707C193.451 35.43 193.416 37.5363 193.354 39.4302C193.283 41.324 193.159 42.9701 192.982 44.3683C192.805 45.7666 192.487 46.9171 192.035 47.8198C191.177 49.6251 189.442 50.5278 186.823 50.5278V50.5189Z" fill="#0013FF"/>
<path d="M215.116 50.519C213.354 50.519 212.009 50.1827 211.089 49.5012C210.16 48.8287 209.478 47.926 209.027 46.7932C208.664 45.6162 208.354 44.271 208.08 42.7312C207.806 41.2001 207.629 39.3948 207.54 37.3151C207.452 35.2442 207.407 32.8017 207.407 30.0052C207.407 28.244 207.425 26.3413 207.478 24.2882C207.522 22.235 207.637 20.1465 207.814 18.0314C207.991 15.9074 208.239 13.8543 208.558 11.8719C209.009 9.88957 209.735 8.39396 210.726 7.40278C211.717 6.4116 213.142 5.91602 214.992 5.91602C216.841 5.91602 218.266 6.4116 219.124 7.40278C219.983 8.39396 220.408 9.93382 220.408 12.0047C220.408 12.9516 220.381 13.9339 220.337 14.9517C220.293 15.9694 220.266 16.9075 220.266 17.757C220.266 18.5712 220.355 19.1199 220.54 19.4119C220.717 19.704 220.921 19.8544 221.151 19.8544C221.47 19.8544 221.717 19.7836 221.894 19.6509C222.071 19.5181 222.275 19.2881 222.505 18.9783C223.452 17.8013 224.514 16.9606 225.682 16.4384C226.859 15.9163 228.204 15.6596 229.744 15.6596C232.134 15.6596 234.063 16.3234 235.532 17.6597C237.001 18.9872 238.09 20.7925 238.815 23.0758C239.532 25.359 239.895 27.8901 239.895 30.6866C239.895 33.7132 239.815 36.5894 239.656 39.3151C239.497 42.0497 239.152 44.4215 238.603 46.4569C238.196 47.7667 237.576 48.7667 236.744 49.4658C235.913 50.165 234.612 50.519 232.851 50.519C230.824 50.519 229.373 49.9703 228.514 48.8641C227.656 47.7578 227.231 46.51 227.231 45.1117C227.142 43.3506 227.142 41.2444 227.231 38.7841C227.319 36.3239 227.364 34.0318 227.364 31.9167C227.364 30.5627 227.089 29.5007 226.549 28.7396C226.01 27.9697 225.24 27.5892 224.249 27.5892C223.841 27.5892 223.425 27.6865 222.992 27.8901C222.558 28.0936 222.16 28.3945 221.771 28.8016C221.39 29.2087 221.071 29.7308 220.824 30.3591C220.576 30.9875 220.452 31.7574 220.452 32.6601C220.452 34.784 220.523 36.8106 220.655 38.7487C220.788 40.6869 220.859 42.7223 220.859 44.8374C220.859 46.9525 220.284 48.3242 219.133 49.2003C217.983 50.0765 216.638 50.519 215.107 50.519H215.116Z" fill="#0013FF"/>
<path d="M261.886 50.7927C258.408 50.7927 255.497 50.244 253.152 49.1378C250.807 48.0316 248.913 46.5891 247.47 44.8103C246.028 43.0315 244.992 41.1111 244.355 39.0579C243.727 37.0048 243.408 35.0578 243.408 33.1993C243.408 31.3409 243.691 29.4736 244.258 27.447C244.824 25.4204 245.753 23.5 247.063 21.6946C248.373 19.8893 250.09 18.4202 252.205 17.2963C254.329 16.1723 256.966 15.606 260.125 15.606C263.285 15.606 265.913 16.1723 268.011 17.2963C270.108 18.4202 271.674 20.0043 272.71 22.0309C273.745 24.0575 274.267 26.4293 274.267 29.1373C274.267 31.394 273.772 33.0489 272.781 34.1109C271.789 35.1728 270.276 35.7038 268.249 35.7038C266.223 35.7038 264.214 35.695 262.09 35.6684C259.966 35.6419 258.205 35.633 256.807 35.633C256.311 35.633 255.975 35.7215 255.789 35.9074C255.612 36.0844 255.515 36.3587 255.515 36.7216C255.515 37.1287 255.612 37.5357 255.816 37.9428C256.019 38.3499 256.355 38.7305 256.833 39.0933C257.311 39.4561 257.913 39.757 258.656 40.0048C259.4 40.2526 260.311 40.3765 261.4 40.3765C262.302 40.3765 263.179 40.3234 264.037 40.2084C264.895 40.0933 265.789 39.996 266.71 39.9075C267.63 39.819 268.657 39.7747 269.789 39.7747C271.276 39.7747 272.391 40.1553 273.143 40.9252C273.887 41.6951 274.258 42.7483 274.258 44.1023C274.258 46.0404 273.285 47.6422 271.347 48.9077C269.409 50.1732 266.249 50.8016 261.869 50.8016L261.886 50.7927ZM260.329 29.4736C261.55 29.4736 262.435 29.4293 263.002 29.3408C263.568 29.2523 263.948 29.0665 264.152 28.801C264.356 28.5267 264.453 28.1904 264.453 27.7833C264.453 26.8363 264.09 26.0045 263.373 25.2788C262.648 24.5619 261.594 24.1991 260.196 24.1991C259.249 24.1991 258.426 24.3938 257.727 24.7743C257.028 25.1549 256.488 25.6416 256.099 26.2257C255.718 26.8098 255.523 27.4204 255.523 28.0488C255.523 28.4116 255.639 28.6948 255.86 28.8983C256.081 29.1019 256.532 29.2523 257.214 29.3408C257.886 29.4293 258.931 29.4736 260.329 29.4736Z" fill="#0013FF"/>
<path d="M287.206 50.5184C285.126 50.5184 283.471 49.9786 282.232 48.8901C280.993 47.8104 280.099 46.4298 279.56 44.7572C279.108 43.4474 278.754 41.8899 278.506 40.0845C278.259 38.2792 278.099 36.3588 278.029 34.3322C277.958 32.3056 277.931 30.2966 277.931 28.3054C277.931 25.5974 277.984 22.8274 278.099 19.9778C278.214 17.137 278.542 14.3847 279.082 11.7209C279.533 9.82708 280.259 8.41996 281.25 7.49074C282.241 6.57036 283.595 6.10132 285.312 6.10132C287.294 6.10132 288.684 6.64116 289.471 7.72968C290.259 8.80936 290.657 10.6147 290.657 13.1458C290.701 14.6325 290.71 16.1812 290.693 17.783C290.666 19.3849 290.613 21.0221 290.524 22.6858C290.436 24.3584 290.33 25.978 290.224 27.5621C290.108 29.1462 290.029 30.6064 289.985 31.9604C289.94 33.3144 289.914 34.5091 289.914 35.5446C289.914 36.7658 290.082 37.6243 290.418 38.1199C290.755 38.6155 291.312 38.9517 292.073 39.1376C292.932 39.2703 293.551 39.6243 293.932 40.1907C294.312 40.7571 294.507 41.7837 294.507 43.2704C294.507 44.4032 294.294 45.5183 293.861 46.6245C293.436 47.7307 292.684 48.6511 291.631 49.4034C290.569 50.1467 289.091 50.5184 287.197 50.5184H287.206Z" fill="#0013FF"/>
<path d="M305.216 50.5194C303.454 50.5194 302.1 50.1831 301.153 49.5016C300.207 48.829 299.525 47.9264 299.127 46.7936C298.499 45.0767 298.065 43.0236 297.844 40.6341C297.614 38.2447 297.507 35.7137 297.507 33.0499C297.507 30.1206 297.587 27.6161 297.746 25.5364C297.906 23.4655 298.162 21.7044 298.525 20.2531C299.109 18.6778 299.879 17.545 300.826 16.8725C301.773 16.1999 302.853 15.8547 304.074 15.8547C305.295 15.8547 306.277 16.0848 307.021 16.5273C307.764 16.9787 308.322 17.6512 308.676 18.5539C309.127 19.5008 309.623 19.9787 310.163 19.9787C310.525 19.9787 311.021 19.6424 311.649 18.961C312.552 17.8371 313.614 16.9964 314.826 16.4565C316.039 15.9167 317.579 15.6423 319.428 15.6423C321.057 15.6423 322.437 15.8901 323.588 16.3857C324.738 16.8813 325.676 17.6512 326.393 18.6867C326.756 19.138 327.057 19.4743 327.305 19.7044C327.552 19.9345 327.809 20.0407 328.083 20.0407C328.358 20.0407 328.8 19.7044 329.437 19.023C330.429 17.8017 331.588 16.9344 332.924 16.4211C334.252 15.899 335.889 15.6423 337.827 15.6423C340.349 15.6423 342.393 16.3061 343.951 17.6424C345.509 18.9699 346.659 20.7752 347.402 23.0585C348.146 25.3417 348.518 27.8727 348.518 30.6693C348.518 33.6959 348.447 36.5721 348.314 39.2978C348.181 42.0324 347.836 44.4042 347.296 46.4396C346.845 47.7494 346.217 48.7494 345.402 49.4485C344.588 50.1477 343.278 50.5017 341.473 50.5017C339.491 50.5017 338.057 49.953 337.172 48.8467C336.296 47.7405 335.827 46.4927 335.783 45.0944C335.694 43.3333 335.703 41.2271 335.818 38.7668C335.933 36.3066 335.986 34.0145 335.986 31.8994C335.986 30.5454 335.712 29.4834 335.172 28.7223C334.632 27.9524 333.862 27.5719 332.871 27.5719C332.508 27.5719 332.101 27.6604 331.65 27.8462C331.198 28.0232 330.783 28.3329 330.393 28.7577C330.013 29.1914 329.694 29.74 329.446 30.4126C329.198 31.0852 329.075 31.8817 329.075 32.7844C329.075 34.2711 329.092 35.6429 329.145 36.8818C329.19 38.1208 329.243 39.3863 329.313 40.6695C329.384 41.9528 329.393 43.3422 329.349 44.8289C329.349 46.8555 328.774 48.3158 327.623 49.1919C326.473 50.068 325.066 50.5105 323.393 50.5105C321.136 50.5105 319.57 49.9618 318.685 48.8556C317.809 47.7494 317.34 46.5016 317.295 45.1033C317.251 43.3422 317.26 41.2359 317.331 38.7757C317.402 36.3154 317.428 34.0234 317.428 31.9083C317.428 30.5542 317.172 29.4923 316.649 28.7312C316.127 27.9612 315.349 27.5807 314.313 27.5807C313.95 27.5807 313.543 27.678 313.092 27.8816C312.64 28.0851 312.225 28.386 311.844 28.7931C311.463 29.2002 311.154 29.7224 310.932 30.3507C310.702 30.979 310.596 31.749 310.596 32.6516C310.596 34.7756 310.649 36.8022 310.764 38.7403C310.879 40.6784 310.932 42.7138 310.932 44.8289C310.932 46.944 310.357 48.3158 309.207 49.1919C308.056 50.068 306.711 50.5105 305.18 50.5105L305.216 50.5194Z" fill="#0013FF"/>
<path d="M186.734 13.2702C190.283 13.2702 193.159 10.3936 193.159 6.84524C193.159 3.29684 190.283 0.420288 186.734 0.420288C183.186 0.420288 180.309 3.29684 180.309 6.84524C180.309 10.3936 183.186 13.2702 186.734 13.2702Z" fill="#0013FF"/>
<g clip-path="url(#clip0_68_245)">
<path d="M29.7967 0.41687C13.4111 0.41687 0.12323 13.7012 0.12323 30.0904C0.12323 46.4795 13.4111 59.7639 29.7967 59.7639C46.1824 59.7639 59.4738 46.4795 59.4738 30.0904C59.4738 13.7012 46.1859 0.41687 29.7967 0.41687ZM45.0607 44.078C42.6697 44.5773 40.1802 44.0991 37.8595 42.6961C36.9066 42.1159 36.0099 41.3986 35.1942 40.5652L35.152 40.5336C31.0028 37.9914 27.3283 39.1306 24.9795 40.5301C23.5273 41.3916 22.4408 42.5062 22.2439 42.7101C19.9337 44.1026 17.4548 44.5737 15.0707 44.078C9.85617 42.9844 6.96231 37.6995 7.6972 30.6178C8.74152 20.5614 16.9062 9.87203 29.9831 9.87203C43.06 9.87203 50.6234 20.3047 51.6923 30.6073C52.4272 37.6784 49.7619 43.0899 45.0607 44.078Z" fill="#0013FF"/>
<path d="M26.1504 15.8356C25.3839 15.4523 24.5118 15.3926 23.6961 15.6668C15.9568 18.2583 12.9434 24.5207 11.776 29.3168C11.5721 30.1502 11.7057 31.0152 12.1523 31.7466C12.5988 32.4779 13.3021 32.9913 14.1319 33.1917C14.3816 33.255 14.6382 33.2867 14.8949 33.2867C16.3788 33.2867 17.6622 32.2775 18.0138 30.8323C18.7979 27.608 20.7741 23.4166 25.7355 21.7534C26.5477 21.4827 27.2053 20.9095 27.5885 20.1395C27.9718 19.3694 28.0316 18.5009 27.7573 17.6887C27.4866 16.8764 26.9134 16.2189 26.1469 15.8356H26.1504Z" fill="#0013FF"/>
</g>
<defs>
<clipPath id="clip0_68_245">
<rect width="59.3505" height="59.347" fill="white" transform="translate(0.12323 0.41687)"/>
</clipPath>
</defs>
</svg>
